<svg width="21" height="22" viewBox="0 0 21 22" fill="none" xmlns="http://www.w3.org/2000/svg">
<path d="M20.2923 20.7905C20.2259 20.8569 20.1472 20.9096 20.0604 20.9456C19.9737 20.9815 19.8808 21 19.7869 21C19.693 21 19.6001 20.9815 19.5134 20.9456C19.4266 20.9096 19.3479 20.8569 19.2815 20.7905L10.5026 12.0124L1.72009 20.7905C1.58606 20.9245 1.40426 20.9998 1.21471 20.9998C1.02516 20.9998 0.843369 20.9245 0.709333 20.7905C0.5753 20.6565 0.5 20.4747 0.5 20.2852C0.5 20.0956 0.5753 19.9139 0.709333 19.7799L9.49184 11.0017L0.712906 2.21998C0.578871 2.08596 0.503571 1.90419 0.503571 1.71465C0.503571 1.52511 0.578871 1.34334 0.712906 1.20932C0.846939 1.07529 1.02873 1 1.21828 1C1.40784 1 1.58963 1.07529 1.72366 1.20932L10.5026 9.99104L19.2851 1.21289C19.4217 1.09587 19.5975 1.03473 19.7773 1.04167C19.9571 1.04862 20.1276 1.12314 20.2548 1.25034C20.382 1.37754 20.4566 1.54806 20.4635 1.72782C20.4705 1.90758 20.4093 2.08334 20.2923 2.21998L11.5133 11.0017L20.2923 19.7834C20.4253 19.9172 20.5 20.0983 20.5 20.287C20.5 20.4757 20.4253 20.6567 20.2923 20.7905Z" fill="black" stroke="black"/>
</svg>
