<svg width="22" height="17" viewBox="0 0 22 17" fill="none" xmlns="http://www.w3.org/2000/svg">
<path d="M13.0578 11.0578C12.5236 11.4342 11.903 11.6332 11.2632 11.6332C10.6234 11.6332 10.0029 11.4342 9.46865 11.0578L0.669343 4.85695C0.620524 4.82255 0.572963 4.78668 0.526367 4.7498V14.9105C0.526367 16.0755 1.42075 17 2.50316 17H20.0232C21.1253 17 22 16.0546 22 14.9105V4.74976C21.9533 4.78673 21.9057 4.82268 21.8567 4.85713L13.0578 11.0578Z" fill="#BE1622"/>
<path d="M1.36728 3.75012L10.1666 9.95098C10.4997 10.1857 10.8814 10.3031 11.2632 10.3031C11.645 10.3031 12.0267 10.1857 12.3598 9.95098L21.1591 3.75012C21.6857 3.37928 22 2.75864 22 2.08878C22 0.936997 21.1135 0 20.0239 0H2.50249C1.41287 4.43318e-05 0.526367 0.937041 0.526367 2.08989C0.526367 2.75863 0.840755 3.37928 1.36728 3.75012Z" fill="#BE1622"/>
</svg>
