<svg width="242" height="66" viewBox="0 0 242 66" fill="none" xmlns="http://www.w3.org/2000/svg">
<g clip-path="url(#clip0_556_1256)">
<path d="M29.5181 54.1484C25.6818 54.1484 23.2881 51.98 23.2881 48.0481V33.1433C23.2881 27.1801 19.9998 24.8123 15.962 24.8123C13.0832 24.8123 9.31622 26.9807 9.31622 33.4175V54.1484H6.30515C1.99014 54.1484 0.00585938 51.7744 0.00585938 48.0481V5.36498H2.88464C7.26895 5.36498 9.39181 7.80135 9.39181 11.1911V21.622C10.7588 19.4535 13.9147 16.743 17.4045 16.743C26.9227 16.743 32.5417 22.3635 32.5417 32.7321V54.1422H29.5307L29.5181 54.1484Z" fill="#1D1D1B"/>
<path d="M50.8859 54.7591H49.0402C40.2716 54.7591 34.2432 49.8801 34.2432 43.1754C34.2432 36.4707 39.0369 31.7226 52.5993 31.7226H55.8182V31.2491C55.8182 26.1021 53.3552 24.5444 47.8748 24.5444C41.2291 24.5444 37.5314 27.0493 36.1644 28.7441H35.8243V25.828C35.8243 21.7653 39.522 16.8863 49.2481 16.8863C57.4687 16.8863 64.864 20.6811 64.864 33.2804V41.6799C64.864 49.4065 59.1128 54.7528 50.8922 54.7528L50.8859 54.7591ZM55.8812 38.2217H52.593C45.6071 38.2217 43.6228 39.848 43.6228 42.8265C43.6228 45.8049 45.9536 47.3627 49.9914 47.3627C54.0292 47.3627 55.8812 45.4685 55.8812 41.7423V38.2217Z" fill="#1D1D1B"/>
<path d="M79.3714 54.4849C72.2469 54.4849 68.3477 50.4845 68.3477 43.1006V18.3755H70.9493C75.0564 18.3755 77.5257 20.544 77.5257 25.1488V42.222C77.5257 45.8797 79.1006 47.0325 83.1447 47.0325H84.8581V48.9953C84.8581 52.9271 83.2833 54.4849 79.3777 54.4849H79.3714Z" fill="#1D1D1B"/>
<path d="M95.264 11.3967V33.2118C98.8231 28.6071 102.319 23.9275 106.565 19.9333C108.757 17.902 110.949 17.5593 113.891 17.5593H119.163V17.8958C116.562 20.0642 108.001 29.685 104.165 34.4955C107.107 38.0846 109.985 41.8108 113.274 45.132C116.631 48.4532 118.137 49.1261 120.398 49.8739C119.441 52.79 117.935 54.3478 114.162 54.3478C112.108 54.3478 109.708 53.4007 108.133 51.8429C103.409 47.0325 99.2955 41.6114 95.2577 36.2589V54.0799L92.3159 54.1484C88.0702 54.217 86.0166 51.98 86.0166 47.7117V5.36498H88.9647C93.4183 5.36498 95.264 7.86989 95.264 11.3967Z" fill="#1D1D1B"/>
<path d="M134.981 54.9585C125.873 54.9585 118.679 48.9953 118.679 38.3588V17.5593H120.392C125.665 17.5593 127.995 19.7963 127.995 24.0646V37.4802C127.995 44.1849 131.284 46.8954 135.46 46.8954C139.227 46.8954 141.898 44.3219 141.898 38.0908V17.5593H143.542C148.884 17.5593 151.145 19.7963 151.145 24.0646V37.7481C151.145 49.1324 145.734 54.9585 134.981 54.9585Z" fill="#1D1D1B"/>
<path d="M170.113 54.7591H168.261C159.492 54.7591 153.464 49.8801 153.464 43.1754C153.464 36.4707 158.258 31.7226 171.82 31.7226H175.039V31.2491C175.039 26.1021 172.576 24.5444 167.096 24.5444C160.45 24.5444 156.752 27.0493 155.385 28.7441H155.045V25.828C155.045 21.7653 158.743 16.8863 168.469 16.8863C176.689 16.8863 184.085 20.6811 184.085 33.2804V41.6799C184.085 49.4065 178.333 54.7528 170.113 54.7528V54.7591ZM175.115 38.2217H171.826C164.84 38.2217 162.856 39.848 162.856 42.8265C162.856 45.8049 165.187 47.3627 169.225 47.3627C173.263 47.3627 175.115 45.4685 175.115 41.7423V38.2217Z" fill="#1D1D1B"/>
<path d="M207.372 26.4386C205.999 25.8965 204.431 25.3544 202.031 25.3544C197.923 25.3544 195.662 27.5914 195.662 33.1433V54.1484H193.13C189.023 54.1484 186.421 52.1171 186.421 48.3223V31.517C186.421 24.2017 190.326 17.2228 200.046 17.2228C205.728 17.2228 207.719 20.4069 207.719 23.186V26.4386H207.379H207.372Z" fill="#1D1D1B"/>
<path d="M216.727 66C213.3 66 210.289 63.7631 210.289 60.3796V58.6162L215.492 58.2797C218.85 58.0741 220.015 56.7219 222 51.575C217.137 44.3282 210.151 26.1707 208.916 17.5656H213.779C216.311 17.5656 218.642 19.2604 219.121 21.8339C220.425 28.8813 223.159 36.4708 226.516 42.9013C229.527 36.0595 232.885 25.018 233.71 17.5656H237.685C240.627 17.5656 242 18.8554 242 21.8339C242 25.6972 235.562 42.3592 233.849 46.291C227.001 62.2801 223.367 66.0063 216.727 66.0063V66Z" fill="#1D1D1B"/>
<path d="M68.8827 3.37727L68.5299 3.80722L67.7236 3.50813C68.6811 2.40522 69.2796 1.22754 69.5 7.62939e-06L70.3504 0.12463C70.1615 0.84744 69.9536 1.47678 69.7016 2.00643V7.6082H68.8827V3.37727ZM70.2559 7.05363C71.1252 6.71092 71.7237 6.2062 72.0575 5.5457C71.5347 5.70148 70.9741 5.85103 70.4197 5.97565L70.0544 5.32138C70.7536 5.19676 71.5032 4.97867 72.2654 4.71696L72.2969 4.43656V3.76983H70.4197V3.09687H72.2969V1.88804H70.4575V1.21508H72.2969V0.0436255H73.1536V4.43033C73.1536 4.69827 73.1158 4.9849 73.0213 5.29646C72.7253 6.29967 72.0134 7.07856 70.8796 7.62067L70.2559 7.05363ZM74.9363 5.10329H77.0718V5.77625H74.9363V7.6082H74.0796V0.018701H74.9363V1.17769H77.0277V1.85065H74.9363V3.09687H77.1096V3.76983H74.9363V5.10329Z" fill="#BE1622"/>
<path d="M70.1239 10.2814C69.7396 10.9917 69.1664 11.6148 68.4167 12.1382L67.749 11.6148C69.0404 10.6864 69.3868 9.96982 69.7522 8.93546L70.6215 9.10993L70.4514 9.5648H76.4672L76.6499 9.59595C76.7381 9.6458 76.8011 9.77043 76.8011 9.96982L76.7507 13.3284C76.7129 14.9485 76.3539 15.9579 75.7491 16.3256C75.4657 16.5063 75.031 16.5997 74.4578 16.5997C73.8845 16.5997 73.1349 16.5063 72.253 16.3193L72.1837 15.4657C73.1223 15.6713 73.8719 15.771 74.3948 15.771C74.7916 15.771 75.0625 15.7211 75.2326 15.6028C75.8499 15.1977 75.8562 13.7957 75.8688 13.2225C75.8877 12.3003 75.9003 11.5961 75.9003 11.1163C75.9003 10.6366 75.8877 10.3686 75.8688 10.3375C75.8499 10.2938 75.8058 10.2814 75.7554 10.2814H70.1239ZM74.546 14.4625C74.546 14.5871 74.4641 14.6556 74.3003 14.6556H69.7585C69.6073 14.6556 69.538 14.5871 69.538 14.4625V11.4778C69.538 11.3594 69.6073 11.297 69.7585 11.297H74.3003C74.4641 11.297 74.546 11.3656 74.546 11.4778V14.4625ZM73.6326 11.9949H70.4262C70.4262 11.9949 70.3884 12.0012 70.3884 12.0261V13.9017C70.3884 13.9017 70.401 13.9453 70.4262 13.9453H73.6326C73.6326 13.9453 73.683 13.9266 73.683 13.9017V12.0261L73.6326 11.9949Z" fill="#BE1622"/>
</g>
<defs>
<clipPath id="clip0_556_1256">
<rect width="242" height="66" fill="white"/>
</clipPath>
</defs>
</svg>
