<svg width="22" height="17" viewBox="0 0 22 17" fill="none" xmlns="http://www.w3.org/2000/svg">
<path d="M20.4559 4.50525H19.8533V10.9898C19.8533 11.9995 19.2529 12.9124 18.0493 12.9124H6.25684V13.2207C6.25684 14.1133 7.29375 15.0144 8.35857 15.0144H17.3745L20.8237 17L20.3235 15.0144H20.4559C21.52 15.0144 22.0001 14.1154 22.0001 13.2207V6.04459C22.0001 5.15195 21.52 4.50525 20.4559 4.50525Z" fill="#BE1622"/>
<path d="M16.2886 0H2.59192C1.38684 0 0 1.04818 0 2.05853V10.1861C0 11.1166 1.17502 11.7885 2.3021 11.8922L1.56861 14.6185L6.2687 11.9111H16.2886C17.4937 11.9111 18.6057 11.1958 18.6057 10.1861V3.61048V2.05853C18.6057 1.04818 17.493 0 16.2886 0ZM4.68149 6.86082C3.99809 6.86082 3.44421 6.31851 3.44421 5.64938C3.44421 4.98026 3.99809 4.43795 4.68149 4.43795C5.36418 4.43795 5.91877 4.98026 5.91877 5.64938C5.91877 6.31851 5.36418 6.86082 4.68149 6.86082ZM9.30287 6.86082C8.61946 6.86082 8.06559 6.31851 8.06559 5.64938C8.06559 4.98026 8.61946 4.43795 9.30287 4.43795C9.98627 4.43795 10.5401 4.98026 10.5401 5.64938C10.5401 6.31851 9.98627 6.86082 9.30287 6.86082ZM13.925 6.86082C13.2416 6.86082 12.687 6.31851 12.687 5.64938C12.687 4.98026 13.2416 4.43795 13.925 4.43795C14.6069 4.43795 15.1622 4.98026 15.1622 5.64938C15.1622 6.31851 14.6069 6.86082 13.925 6.86082Z" fill="#BE1622"/>
</svg>
