<svg width="17" height="21" viewBox="0 0 17 21" fill="none" xmlns="http://www.w3.org/2000/svg">
<path d="M8.50029 10.8855C11.2134 10.8855 13.4313 8.54992 13.4313 5.69275C13.4313 2.83559 11.2134 0.5 8.50029 0.5C5.78715 0.5 3.56934 2.83559 3.56934 5.69275C3.56934 8.54992 5.78719 10.8855 8.50029 10.8855Z" fill="#BE1622"/>
<path d="M16.9637 15.0351C16.8345 14.695 16.6622 14.3775 16.4684 14.0827C15.4779 12.5408 13.9491 11.5204 12.2265 11.2709C12.0112 11.2483 11.7743 11.2936 11.6021 11.4296C10.6977 12.1326 9.62106 12.4954 8.50133 12.4954C7.38161 12.4954 6.30499 12.1326 5.40061 11.4296C5.22833 11.2936 4.99147 11.2256 4.77616 11.2709C3.05354 11.5204 1.5032 12.5408 0.534239 14.0827C0.340447 14.3775 0.168168 14.7177 0.0390007 15.0351C-0.0255831 15.1712 -0.00406896 15.3299 0.0605148 15.466C0.232793 15.7834 0.4481 16.1009 0.641893 16.373C0.943339 16.8039 1.26634 17.1893 1.63241 17.5521C1.93386 17.8696 2.27837 18.1644 2.62293 18.4592C4.32399 19.7971 6.36961 20.5 8.47982 20.5C10.59 20.5 12.6356 19.797 14.3367 18.4592C14.6812 18.1871 15.0257 17.8696 15.3272 17.5521C15.6717 17.1893 16.0163 16.8038 16.3177 16.373C16.5331 16.0782 16.7269 15.7834 16.8991 15.466C17.0067 15.3299 17.0282 15.1711 16.9637 15.0351Z" fill="#BE1622"/>
</svg>
